<svg xmlns="http://www.w3.org/2000/svg" width="18.152" height="21.782" viewBox="0 0 18.152 21.782"><g transform="translate(-21.332)"><path class="a" d="M38.92,15.35A6.079,6.079,0,0,1,36.761,10.7V8.168a6.358,6.358,0,0,0-5.445-6.28V.908a.908.908,0,0,0-1.815,0v.98a6.357,6.357,0,0,0-5.445,6.28V10.7a6.086,6.086,0,0,1-2.167,4.659,1.588,1.588,0,0,0,1.033,2.795H37.9a1.588,1.588,0,0,0,1.025-2.8Zm0,0"/><path class="a" d="M159.624,450.723A3.409,3.409,0,0,0,162.958,448h-6.669A3.409,3.409,0,0,0,159.624,450.723Zm0,0" transform="translate(-129.216 -428.941)"/></g></svg>