<svg xmlns="http://www.w3.org/2000/svg" width="16.36" height="16.101" viewBox="0 0 16.36 16.101"><g transform="translate(-2 -2.8)"><g transform="translate(2.5 3.3)"><path class="a" d="M5.336,3.3H2.806a.306.306,0,0,0-.306.306v2.53a.317.317,0,0,0,.306.306h2.53a.317.317,0,0,0,.306-.306V3.606A.317.317,0,0,0,5.336,3.3Z" transform="translate(-2.5 -3.3)"/><path class="a" d="M5.336,40.3H2.806a.317.317,0,0,0-.306.306v2.53a.317.317,0,0,0,.306.306h2.53a.317.317,0,0,0,.306-.306v-2.53A.306.306,0,0,0,5.336,40.3Z" transform="translate(-2.5 -34.313)"/><path class="a" d="M5.336,77.2H2.806a.317.317,0,0,0-.306.306v2.53a.317.317,0,0,0,.306.306h2.53a.317.317,0,0,0,.306-.306v-2.53A.317.317,0,0,0,5.336,77.2Z" transform="translate(-2.5 -65.241)"/><path class="a" d="M43.12,3.3H40.606a.306.306,0,0,0-.306.306v2.53a.317.317,0,0,0,.306.306h2.53a.317.317,0,0,0,.306-.306V3.606A.332.332,0,0,0,43.12,3.3Z" transform="translate(-34.183 -3.3)"/><path class="a" d="M43.12,40.3H40.606a.317.317,0,0,0-.306.306v2.53a.317.317,0,0,0,.306.306h2.53a.317.317,0,0,0,.306-.306v-2.53A.32.32,0,0,0,43.12,40.3Z" transform="translate(-34.183 -34.313)"/><path class="a" d="M43.12,77.2H40.606a.317.317,0,0,0-.306.306v2.53a.317.317,0,0,0,.306.306h2.53a.317.317,0,0,0,.306-.306v-2.53A.332.332,0,0,0,43.12,77.2Z" transform="translate(-34.183 -65.241)"/><path class="a" d="M80.836,3.3h-2.53A.306.306,0,0,0,78,3.606v2.53a.317.317,0,0,0,.306.306h2.53a.317.317,0,0,0,.306-.306V3.606A.317.317,0,0,0,80.836,3.3Z" transform="translate(-65.783 -3.3)"/><path class="a" d="M80.836,40.3h-2.53a.317.317,0,0,0-.306.306v2.53a.317.317,0,0,0,.306.306h2.53a.317.317,0,0,0,.306-.306v-2.53A.306.306,0,0,0,80.836,40.3Z" transform="translate(-65.783 -34.313)"/><path class="a" d="M80.836,77.2h-2.53a.317.317,0,0,0-.306.306v2.53a.317.317,0,0,0,.306.306h2.53a.317.317,0,0,0,.306-.306v-2.53A.317.317,0,0,0,80.836,77.2Z" transform="translate(-65.783 -65.241)"/></g></g></svg>