<svg xmlns="http://www.w3.org/2000/svg" width="21.58" height="21.58" viewBox="0 0 21.58 21.58"><g transform="translate(-7.5 -7.5)"><g transform="translate(7.5 7.5)"><path class="a" d="M27.049,7.5H9.531A2.037,2.037,0,0,0,7.5,9.531V27.049A2.037,2.037,0,0,0,9.531,29.08H27.049a2.037,2.037,0,0,0,2.031-2.031V9.531A2.037,2.037,0,0,0,27.049,7.5Zm-2.5,17.033H12.029a1.27,1.27,0,1,1,0-2.54H24.551a1.27,1.27,0,0,1,0,2.54Zm0-4.973H12.029a1.27,1.27,0,0,1,0-2.54H24.551a1.27,1.27,0,0,1,0,2.54Zm0-4.974H12.029a1.27,1.27,0,1,1,0-2.54H24.551a1.27,1.27,0,0,1,0,2.54Z" transform="translate(-7.5 -7.5)"/></g></g></svg>