<svg xmlns="http://www.w3.org/2000/svg" width="72.001" height="72.001" viewBox="0 0 72.001 72.001"><g transform="translate(-135 -398)"><path class="a" d="M72,36A36,36,0,1,1,36,0,35.981,35.981,0,0,1,72,36Zm-5.625,0A30.376,30.376,0,1,0,36,66.376,30.359,30.359,0,0,0,66.376,36Zm0,0" transform="translate(135 398)"/><g transform="translate(161.491 425.171)"><path class="b" d="M10.674,9.455l7.659-7.617a.922.922,0,0,0,0-1.314.944.944,0,0,0-1.327,0L9.353,8.134,1.63.41A.94.94,0,1,0,.3,1.741L8.02,9.46l-7.745,7.7a.924.924,0,0,0,0,1.314.944.944,0,0,0,1.327,0l7.739-7.7,7.692,7.693a.94.94,0,0,0,1.327-1.331Z" transform="translate(0 -0.135)"/></g></g></svg>