<svg xmlns="http://www.w3.org/2000/svg" width="18.429" height="18.429" viewBox="0 0 18.429 18.429"><path class="a" d="M15.729,0H2.7A2.7,2.7,0,0,0,0,2.7v13.03a2.7,2.7,0,0,0,2.7,2.7h13.03a2.7,2.7,0,0,0,2.7-2.7V2.7A2.7,2.7,0,0,0,15.729,0ZM9.25,14.037a4.859,4.859,0,1,1,4.859-4.859A4.865,4.865,0,0,1,9.25,14.037Zm5.4-8.638a1.62,1.62,0,1,1,1.62-1.62A1.622,1.622,0,0,1,14.649,5.4Zm0,0" transform="translate(0 0)"/><path class="a" d="M392.54,90a.54.54,0,1,0,.54.54A.54.54,0,0,0,392.54,90Zm0,0" transform="translate(-377.891 -86.761)"/><path class="a" d="M155.779,150a3.779,3.779,0,1,0,3.779,3.779A3.784,3.784,0,0,0,155.779,150Zm0,0" transform="translate(-146.529 -144.601)"/></svg>