<svg xmlns="http://www.w3.org/2000/svg" width="35.897" height="34.336" viewBox="0 0 35.897 34.336"><g transform="translate(0 -0.332)"><path class="a" d="M23.8,221.341H1.171a1.171,1.171,0,1,1,0-2.341H23.8a1.171,1.171,0,1,1,0,2.341Zm0,0" transform="translate(0 -202.671)"/><path class="a" d="M225.174,148.458a1.171,1.171,0,0,1-.827-2l5.416-5.415-5.416-5.416A1.171,1.171,0,0,1,226,133.972l6.243,6.243a1.171,1.171,0,0,1,0,1.656L226,148.113A1.162,1.162,0,0,1,225.174,148.458Zm0,0" transform="translate(-207.616 -123.545)"/><path class="a" d="M52.532,34.668A17.079,17.079,0,0,1,36.554,23.78a1.17,1.17,0,1,1,2.179-.855,14.827,14.827,0,1,0,0-10.85,1.17,1.17,0,1,1-2.179-.855A17.168,17.168,0,1,1,52.532,34.668Zm0,0" transform="translate(-33.804)"/></g></svg>