<svg xmlns="http://www.w3.org/2000/svg" width="11.647" height="17.466" viewBox="0 0 11.647 17.466"><g transform="translate(-19.994 -5.03)"><path class="a" d="M27.736,5.03a.926.926,0,0,0-.783.455L20.347,17.011a.582.582,0,0,0-.073.255L20,21.876a.582.582,0,0,0,.9.522l3.834-2.548a.582.582,0,0,0,.182-.194l6.606-11.52a.937.937,0,0,0-.34-1.262L28.215,5.151a.9.9,0,0,0-.346-.115A.934.934,0,0,0,27.736,5.03Zm.109,1.256L30.393,7.76,29.61,9.125,27.062,7.651ZM26.486,8.658l2.542,1.474-4.835,8.432L21.645,17.09Zm-5.108,9.621L23.307,19.4l-2.081,1.383Z"/></g></svg>