<svg xmlns="http://www.w3.org/2000/svg" width="14.829" height="28.761" viewbox="0 0 14.829 28.761"><defs></defs><path class="a" d="M5.883,7.415A7.414,7.414,0,0,0-1.364,0,7.414,7.414,0,0,0-8.938,7.08a7.414,7.414,0,0,0,6.905,7.732V28.26a.5.5,0,0,0,.5.5.5.5,0,0,0,.5-.5V14.816A7.291,7.291,0,0,0,3.7,12.7,7.389,7.389,0,0,0,5.883,7.415Zm-3.9-.993a.5.5,0,0,1-.662-.256,3.131,3.131,0,0,0-2.225-1.8.5.5,0,0,1-.378-.333.5.5,0,0,1,.1-.494A.5.5,0,0,1-.7,3.383a4.136,4.136,0,0,1,2.94,2.378.5.5,0,0,1-.256.662Zm0,0" transform="translate(8.946 0)" style="fill: #ffcc28;"></path></svg>