<svg xmlns="http://www.w3.org/2000/svg" width="13.635" height="13.635" viewBox="0 0 13.635 13.635"><path class="a" d="M12.553,8.655a6.387,6.387,0,0,0-1.629-1.02.533.533,0,0,0-.433.973,5.327,5.327,0,0,1,1.358.846,2.124,2.124,0,0,1,.719,1.6v.985a.533.533,0,0,1-.533.533H1.6a.533.533,0,0,1-.533-.533v-.985a2.124,2.124,0,0,1,.719-1.6A7.487,7.487,0,0,1,6.817,7.883a3.946,3.946,0,1,0-2.4-.818,7.4,7.4,0,0,0-3.335,1.59A3.189,3.189,0,0,0,0,11.052v.985a1.6,1.6,0,0,0,1.6,1.6H12.037a1.6,1.6,0,0,0,1.6-1.6v-.985A3.189,3.189,0,0,0,12.553,8.655ZM3.941,3.941A2.876,2.876,0,1,1,6.817,6.817,2.879,2.879,0,0,1,3.941,3.941Zm0,0"/></svg>